<svg width="36" height="38" viewBox="0 0 36 38" fill="none" xmlns="http://www.w3.org/2000/svg">
<path d="M2.73192 12.2138L13.7836 19.5827C15.3083 20.5976 16.0699 21.1058 16.8933 21.3038C17.6216 21.4779 18.38 21.4779 19.1068 21.3038C19.9301 21.1058 20.6917 20.5976 22.2164 19.5827L33.2681 12.2138M10.3319 30.875H25.6681C28.3281 30.875 29.6581 30.875 30.6746 30.3573C31.5677 29.9016 32.2938 29.175 32.7488 28.2815C33.2681 27.265 33.2681 25.935 33.2681 23.275V14.725C33.2681 12.065 33.2681 10.735 32.7503 9.7185C32.2949 8.82477 31.5683 8.09814 30.6746 7.64275C29.6581 7.125 28.3281 7.125 25.6681 7.125H10.3319C7.67192 7.125 6.34192 7.125 5.32542 7.64275C4.43228 8.09841 3.70623 8.82501 3.25125 9.7185C2.73192 10.735 2.73192 12.065 2.73192 14.725V23.275C2.73192 25.935 2.73192 27.265 3.24967 28.2815C3.70506 29.1752 4.43169 29.9019 5.32542 30.3573C6.34192 30.875 7.67192 30.875 10.3319 30.875Z" stroke="#D3840D" stroke-width="1.5" stroke-linecap="round" stroke-linejoin="round"/>
</svg>
