<svg width="36" height="36" viewBox="0 0 36 36" fill="none" xmlns="http://www.w3.org/2000/svg">
<path d="M19.3563 34.3266C19.0487 34.5457 18.6745 34.6641 18.2899 34.6641C17.9054 34.6641 17.5312 34.5457 17.2236 34.3266C8.02448 27.8419 -1.74262 14.5011 8.1263 4.86229C9.44382 3.56537 11.0224 2.53304 12.7684 1.82661C14.5143 1.12019 16.392 0.754068 18.2899 0.750002C22.1018 0.750002 25.7564 2.22873 28.4518 4.86059C38.3225 14.4994 28.5572 27.8385 19.3563 34.3283" stroke="#D3840D" stroke-width="1.5" stroke-linecap="round" stroke-linejoin="round"/>
<path d="M18.2909 17.7071C19.2384 17.7071 20.1471 17.3498 20.8171 16.7137C21.487 16.0777 21.8634 15.215 21.8634 14.3155C21.8634 13.416 21.487 12.5534 20.8171 11.9173C20.1471 11.2813 19.2384 10.9239 18.2909 10.9239C17.3435 10.9239 16.4348 11.2813 15.7648 11.9173C15.0949 12.5534 14.7185 13.416 14.7185 14.3155C14.7185 15.215 15.0949 16.0777 15.7648 16.7137C16.4348 17.3498 17.3435 17.7071 18.2909 17.7071Z" stroke="#D3840D" stroke-width="1.5" stroke-linecap="round" stroke-linejoin="round"/>
</svg>
