<svg width="36" height="48" viewBox="0 0 36 48" fill="none" xmlns="http://www.w3.org/2000/svg">
<path d="M15.6 33.6C15.2817 33.6 14.9765 33.7264 14.7515 33.9515C14.5264 34.1765 14.4 34.4817 14.4 34.8C14.4 35.1183 14.5264 35.4235 14.7515 35.6485C14.9765 35.8736 15.2817 36 15.6 36H20.4C20.7183 36 21.0235 35.8736 21.2485 35.6485C21.4736 35.4235 21.6 35.1183 21.6 34.8C21.6 34.4817 21.4736 34.1765 21.2485 33.9515C21.0235 33.7264 20.7183 33.6 20.4 33.6H15.6ZM10.8 4.8C9.52696 4.8 8.30606 5.30572 7.40589 6.20589C6.50571 7.10606 6 8.32696 6 9.6V38.4C6 39.673 6.50571 40.8939 7.40589 41.7941C8.30606 42.6943 9.52696 43.2 10.8 43.2H25.2C26.473 43.2 27.6939 42.6943 28.5941 41.7941C29.4943 40.8939 30 39.673 30 38.4V9.6C30 8.32696 29.4943 7.10606 28.5941 6.20589C27.6939 5.30572 26.473 4.8 25.2 4.8H10.8ZM8.4 9.6C8.4 8.96348 8.65286 8.35303 9.10294 7.90295C9.55303 7.45286 10.1635 7.2 10.8 7.2H25.2C25.8365 7.2 26.447 7.45286 26.8971 7.90295C27.3471 8.35303 27.6 8.96348 27.6 9.6V38.4C27.6 39.0365 27.3471 39.647 26.8971 40.0971C26.447 40.5471 25.8365 40.8 25.2 40.8H10.8C10.1635 40.8 9.55303 40.5471 9.10294 40.0971C8.65286 39.647 8.4 39.0365 8.4 38.4V9.6Z" fill="#D3840D"/>
</svg>
